<svg xmlns="http://www.w3.org/2000/svg" xmlns:xlink="http://www.w3.org/1999/xlink"><defs><symbol viewBox="0 0 59 49" id="logo"><path d="M59 5.835V0H29.897c1.915 2.334 3.208 5.834 3.208 5.834zm-49.26.084h12.499s6.587 6.545-1.408 17.13zm29.22 18.683v6.444h15.033v10.84s-5.123 2.504-11.936 1.651c-6.813-.854-11.147-5.293-13.343-7.967-2.196-2.675-4.843-7.684-4.843-7.684s4.955-4.722 6.08-13.146C31.252 5.024 24.83 0 24.83 0H0l14.977 24.602H1.632v24.256h5.293V31.046H19.03s.732 1.052 3.209 5.092C25.687 41.764 33.33 49 42.113 49S59 46.155 59 46.155V24.602z" /></symbol></defs></svg>